#!OML:ASF F:\VICON\USERDATA\INSTALL\rory3\rory3.ASF
:FULLY-SPECIFIED
:DEGREES
364
root 0.588833 17.7003 41.6231 -1.74596 -5.38918 -3.23818
lowerback 9.39123 2.08436 2.73399
upperback 0.352153 3.10742 0.855238
thorax -4.80038 1.48217 -1.05824
lowerneck -15.3405 -3.37666 -2.19423
upperneck 21.6038 -4.27011 0.492252
head 9.40327 -2.1159 -0.000696848
rclavicle -1.0899e-014 -5.44173e-015
rhumerus -25.2922 -13.1799 -81.1516
rradius 32.9952
rwrist -1.44432
rhand -17.6333 22.1797
rfingers 7.12502
rthumb 8.62425 -7.62419
lclavicle -1.0899e-014 -5.44173e-015
lhumerus -38.9117 16.4668 74.8803
lradius 16.6258
lwrist -4.78193
lhand -26.632 34.5122
lfingers 7.12502
lthumb -0.0646485 64.4919
rfemur 9.17623 5.28566 28.586
rtibia 39.0483
rfoot -9.25519 -3.98785
rtoes -11.9326
lfemur -21.6355 -4.69227 -15.936
ltibia 16.3739
lfoot 2.598 -5.23416
ltoes -3.14012
365
root 0.599873 17.7121 41.8326 -1.72194 -4.95955 -3.43772
lowerback 8.78713 2.00231 3.01306
upperback 0.683669 2.99514 0.857018
thorax -4.10588 1.43634 -1.16409
lowerneck -16.0179 -3.68029 -2.60439
upperneck 22.0206 -4.72275 1.0874
head 9.71001 -2.286 0.196908
rclavicle -1.41945e-015 5.71506e-015
rhumerus -25.0873 -14.1351 -81.0692
rradius 32.5612
rwrist -1.60281
rhand -17.5697 22.2843
rfingers 7.12502
rthumb 8.68564 -7.51697
lclavicle -1.41945e-015 5.71506e-015
lhumerus -38.2328 16.7411 74.8374
lradius 16.2171
lwrist -5.08161
lhand -26.7127 32.8611
lfingers 7.12502
lthumb -0.142566 62.8408
rfemur 8.34253 4.62041 28.5804
rtibia 41.1115
rfoot -6.29268 -3.73169
rtoes -11.5154
lfemur -21.4091 -4.50301 -15.9958
ltibia 17.0827
lfoot 2.44659 -5.98591
ltoes -2.94263
366
root 0.605264 17.7175 41.9912 -1.68548 -4.78692 -3.80182
lowerback 9.53015 1.9534 3.17555
upperback 0.10674 3.00295 1.0281
thorax -5.12652 1.41414 -1.12351
lowerneck -15.0478 -3.67676 -2.74702
upperneck 21.9523 -4.75196 1.26986
head 9.5139 -2.29921 0.298651
rclavicle -2.67459e-014 -1.28713e-014
rhumerus -26.3934 -14.7574 -80.5518
rradius 32.2608
rwrist -1.28563
rhand -17.6442 22.7199
rfingers 7.12502
rthumb 8.61371 -7.08436
lclavicle -2.67459e-014 -1.28713e-014
lhumerus -39.003 16.5161 74.6485
lradius 16.1835
lwrist -5.02244
lhand -26.29 31.7198
lfingers 7.12502
lthumb 0.265654 61.6994
rfemur 6.94851 4.38905 28.9144
rtibia 43.3899
rfoot -2.69571 -3.73522
rtoes -9.56446
lfemur -21.4612 -3.80629 -15.8395
ltibia 17.9899
lfoot 1.71179 -6.02044
ltoes -4.27535
367
root 0.638433 17.7424 42.2158 -1.82585 -4.2381 -3.04512
lowerback 9.25915 1.79305 2.66408
upperback 0.227599 2.7077 0.777525
thorax -4.86996 1.28376 -1.04582
lowerneck -15.2022 -3.55613 -2.60276
upperneck 21.8508 -4.62816 1.32933
head 9.50195 -2.22209 0.30915
rclavicle -2.05649e-014 -1.4064e-014
rhumerus -26.8494 -15.6126 -80.3379
rradius 32.1503
rwrist -1.07537
rhand -17.591 23.0228
rfingers 7.12502
rthumb 8.66501 -6.77937
lclavicle -2.05649e-014 -1.4064e-014
lhumerus -38.7163 17.2578 74.2353
lradius 15.8551
lwrist -5.67587
lhand -25.6679 30.727
lfingers 7.12502
lthumb 0.866537 60.705
rfemur 6.03714 3.3847 27.5688
rtibia 45.6644
rfoot 0.352741 -3.15287
rtoes -8.70045
lfemur -21.0271 -3.27822 -17.1939
ltibia 18.8861
lfoot 0.486103 -5.99746
ltoes -6.73307
368
root 0.664673 17.7624 42.4134 -1.94582 -3.99914 -2.85415
lowerback 9.0638 1.76306 2.68393
upperback 0.523517 2.6516 0.697618
thorax -4.44833 1.26405 -1.11888
lowerneck -16.0419 -3.8283 -2.82034
upperneck 22.1435 -4.97509 1.48871
head 9.78074 -2.37403 0.336569
rclavicle -1.85087e-014 -9.16894e-015
rhumerus -26.9717 -16.4902 -80.1382
rradius 32.0749
rwrist -0.980599
rhand -17.6617 23.136
rfingers 7.12502
rthumb 8.59685 -6.66893
lclavicle -1.85087e-014 -9.16894e-015
lhumerus -38.1333 17.6644 74.2551
lradius 15.8996
lwrist -5.96709
lhand -25.397 29.418
lfingers 7.12502
lthumb 1.12816 59.3948
rfemur 4.92429 2.71642 26.9907
rtibia 47.9812
rfoot 3.36363 -2.75839
rtoes -8.76638
lfemur -20.6238 -2.92757 -17.6945
ltibia 19.4484
lfoot -0.0682167 -6.54433
ltoes -4.7553
